<?xml version="1.0" encoding="utf-8"?>
<!-- Generator: Adobe Illustrator 25.4.1, SVG Export Plug-In . SVG Version: 6.00 Build 0)  -->
<svg version="1.1" id="Calque_1" xmlns="http://www.w3.org/2000/svg" xmlns:xlink="http://www.w3.org/1999/xlink" x="0px" y="0px"
	 viewBox="0 0 900 617.8" style="enable-background:new 0 0 900 617.8;" xml:space="preserve">
<style type="text/css">
	.st0{fill:none;stroke:#B2B2B2;stroke-miterlimit:10;}
	.st1{fill:none;stroke:#B2B2B2;stroke-width:3;stroke-miterlimit:10;}
	.st2{fill:#B2B2B2;}
	.st3{fill:none;}
	.st4{fill:#FFFFFF;}
	.st5{fill:#585857;}
	.st6{opacity:0.6;}
	.st7{fill:none;stroke:#42A9E0;stroke-width:0.25;stroke-miterlimit:10;}
	.st8{fill:none;stroke:#1E1E1C;stroke-width:0.25;stroke-miterlimit:10;}
	.st9{fill:#39A8E0;}
	.st10{fill:none;stroke:#FFFFFF;stroke-width:2;stroke-miterlimit:10;}
	.st11{fill:#2B658A;}
	.st12{fill:#35A8E0;}
	.st13{fill:#575756;}
	.st14{fill:#9D9D9C;}
</style>
<g>
	
		<image style="overflow:visible;opacity:0.6;enable-background:new    ;" width="471" height="438" xlink:href="69EBB230.png"  transform="matrix(0.2378 0 0 0.2378 349.0362 274.3758)">
	</image>
	<g>
		<line class="st0" x1="364.3" y1="289.8" x2="445.7" y2="363.1"/>
	</g>
</g>
<g>
	
		<image style="overflow:visible;opacity:0.6;enable-background:new    ;" width="354" height="454" xlink:href="69EBB22F.png"  transform="matrix(0.2384 0 0 0.2384 396.4407 211.9758)">
	</image>
	<g>
		<line class="st0" x1="465.4" y1="304.9" x2="411.9" y2="227.5"/>
	</g>
</g>
<g>
	
		<image style="overflow:visible;opacity:0.6;enable-background:new    ;" width="546" height="196" xlink:href="69EBB270.png"  transform="matrix(0.2388 0 0 0.2388 349.3343 273.6558)">
	</image>
	<g>
		<path class="st0" d="M364.3,289.8c35.6-2.5,68.9,3,100.2,15.1"/>
	</g>
</g>
<g>
	
		<image style="overflow:visible;opacity:0.6;enable-background:new    ;" width="350" height="400" xlink:href="69EBB271.png"  transform="matrix(0.2345 0 0 0.2345 265.96 360.5529)">
	</image>
	<g>
		<line class="st0" x1="332.5" y1="439.1" x2="281.4" y2="375.8"/>
	</g>
</g>
<g>
	
		<image style="overflow:visible;opacity:0.6;enable-background:new    ;" width="158" height="567" xlink:href="69EBB272.png"  transform="matrix(0.237 0 0 0.237 312.04 319.6371)">
	</image>
	<g>
		<path class="st0" d="M327.7,334.7c6.5,34.4,7.6,69.2,4.8,104.4"/>
	</g>
</g>
<g>
	
		<image style="overflow:visible;opacity:0.6;enable-background:new    ;" width="433" height="217" xlink:href="69EBB277.png"  transform="matrix(0.2334 0 0 0.2334 450.6367 289.2558)">
	</image>
	<g>
		<line class="st0" x1="537.7" y1="324.4" x2="464.5" y2="304.9"/>
	</g>
</g>
<g>
	
		<image style="overflow:visible;opacity:0.6;enable-background:new    ;" width="463" height="200" xlink:href="69EBB27C.png"  transform="matrix(0.2352 0 0 0.2352 430.8712 346.8558)">
	</image>
	<g>
		<path class="st0" d="M445.7,363.1c31.6-2.5,58.3,2.1,78.9,15.4"/>
	</g>
</g>
<g>
	
		<image style="overflow:visible;opacity:0.6;enable-background:new    ;" width="513" height="292" xlink:href="69EBB27D.png"  transform="matrix(0.2384 0 0 0.2384 430.5416 308.9358)">
	</image>
	<g>
		<line class="st0" x1="537.7" y1="324.4" x2="445.7" y2="363.1"/>
	</g>
</g>
<g>
	
		<image style="overflow:visible;opacity:0.6;enable-background:new    ;" width="213" height="371" xlink:href="69EBB27E.png"  transform="matrix(0.2344 0 0 0.2344 430.12 290.5409)">
	</image>
	<g>
		<line class="st0" x1="464.5" y1="304.9" x2="445.7" y2="363.1"/>
	</g>
</g>
<g>
	
		<image style="overflow:visible;opacity:0.6;enable-background:new    ;" width="625" height="588" xlink:href="4F10C236.png"  transform="matrix(0.2367 0 0 0.2367 312.9404 319.4958)">
	</image>
	<g>
		<g>
			<path class="st0" d="M327.7,335.2L403,442.5c6.4-28.6,20.7-55.1,42.7-79.4h-1.1c-41.9-3.3-80.5-12.5-115.6-27.9"/>
		</g>
	</g>
</g>
<g>
	
		<image style="overflow:visible;opacity:0.6;enable-background:new    ;" width="296" height="496" xlink:href="4F10C237.png"  transform="matrix(0.2376 0 0 0.2376 430.12 348.059)">
	</image>
	<g>
		<path class="st0" d="M485,450.8c-20.9-22-34-51.2-39.3-87.7"/>
	</g>
</g>
<g>
	
		<image style="overflow:visible;opacity:0.6;enable-background:new    ;" width="246" height="250" xlink:href="4F10C238.png"  transform="matrix(0.2342 0 0 0.2342 471.5085 408.2958)">
	</image>
	<g>
		<line class="st0" x1="513.9" y1="423.8" x2="487" y2="451.5"/>
	</g>
</g>
<g>
	
		<image style="overflow:visible;opacity:0.6;enable-background:new    ;" width="350" height="158" xlink:href="4F10C239.png"  transform="matrix(0.2354 0 0 0.2354 498.8375 408.2958)">
	</image>
	<g>
		<path class="st0" d="M566.3,424.1c-18.1,7.5-35.7,8-52.5-0.2"/>
	</g>
</g>
<g>
	
		<image style="overflow:visible;opacity:0.6;enable-background:new    ;" width="179" height="321" xlink:href="4F10C23A.png"  transform="matrix(0.2346 0 0 0.2346 498.28 363.4366)">
	</image>
	<g>
		<line class="st0" x1="524.6" y1="378.5" x2="513.9" y2="423.8"/>
	</g>
</g>
<g>
	
		<image style="overflow:visible;opacity:0.6;enable-background:new    ;" width="354" height="208" xlink:href="4F10C23B.png"  transform="matrix(0.2319 0 0 0.2319 552.1497 391.4958)">
	</image>
	<g>
		<line class="st0" x1="620" y1="407.2" x2="566.3" y2="424.1"/>
	</g>
</g>
<g>
	
		<image style="overflow:visible;opacity:0.6;enable-background:new    ;" width="292" height="229" xlink:href="4F10C234.png"  transform="matrix(0.2337 0 0 0.2337 551.6381 408.5358)">
	</image>
	<g>
		<line class="st0" x1="605" y1="446.6" x2="566.3" y2="424.1"/>
	</g>
</g>
<g>
	
		<image style="overflow:visible;opacity:0.6;enable-background:new    ;" width="175" height="346" xlink:href="4F10C235.png"  transform="matrix(0.2359 0 0 0.2359 595.48 340.4876)">
	</image>
	<g>
		<path class="st1" d="M612,356c5,16.9,7.3,34,8,51.1"/>
	</g>
</g>
<g>
	
		<image style="overflow:visible;opacity:0.6;enable-background:new    ;" width="196" height="296" xlink:href="4F10C232.png"  transform="matrix(0.2376 0 0 0.2376 590.2 392.0982)">
	</image>
	<g>
		<path class="st1" d="M606.5,446.6c8.1-9.8,11.9-23.6,13.5-39.4"/>
	</g>
</g>
<g>
	
		<image style="overflow:visible;opacity:0.6;enable-background:new    ;" width="442" height="263" xlink:href="4F10C233.png"  transform="matrix(0.2373 0 0 0.2373 522.28 309.0528)">
	</image>
	<g>
		<path class="st0" d="M537.7,324.4c21.3,15.5,46.2,25.9,74.3,31.6"/>
	</g>
</g>
<g>
	
		<image style="overflow:visible;opacity:0.6;enable-background:new    ;" width="304" height="321" xlink:href="4F10C243.png"  transform="matrix(0.2385 0 0 0.2385 509.1873 362.9358)">
	</image>
	<g>
		<line class="st0" x1="566.3" y1="424.1" x2="524.6" y2="378.5"/>
	</g>
</g>
<g>
	
		<image style="overflow:visible;opacity:0.6;enable-background:new    ;" width="188" height="358" xlink:href="4F10C244.png"  transform="matrix(0.2349 0 0 0.2349 509.08 309.3699)">
	</image>
	<g>
		<line class="st0" x1="537.7" y1="324.4" x2="524.6" y2="378.5"/>
	</g>
</g>
<g>
	
		<image style="overflow:visible;opacity:0.6;enable-background:new    ;" width="179" height="325" xlink:href="4F10C245.png"  transform="matrix(0.2373 0 0 0.2373 469.48 435.8515)">
	</image>
	<g>
		<line class="st0" x1="496.3" y1="497.9" x2="485" y2="450.8"/>
	</g>
</g>
<g>
	
		<image style="overflow:visible;opacity:0.6;enable-background:new    ;" width="292" height="354" xlink:href="4F10C242.png"  transform="matrix(0.2342 0 0 0.2342 480.76 482.7542)">
	</image>
	<g>
		<path class="st0" d="M533.6,550.6c-10.6-20-22.7-38-37.3-52.8"/>
	</g>
</g>
<g>
	
		<image style="overflow:visible;opacity:0.6;enable-background:new    ;" width="242" height="392" xlink:href="4F10C241.png"  transform="matrix(0.236 0 0 0.236 564.76 431.3933)">
	</image>
	<g>
		<path class="st1" d="M581,508c16.1-20.4,25.8-40.8,23.9-61.4"/>
	</g>
</g>
<g>
	
		<image style="overflow:visible;opacity:0.6;enable-background:new    ;" width="333" height="317" xlink:href="4F10C258.png"  transform="matrix(0.237 0 0 0.237 517.7442 491.5758)">
	</image>
	<g>
		<path class="st1" d="M533.6,550.6c16.1-18.9,31.4-33.7,47.4-42.7"/>
	</g>
</g>
<g>
	
		<image style="overflow:visible;opacity:0.6;enable-background:new    ;" width="342" height="321" xlink:href="4F10C25D.png"  transform="matrix(0.2348 0 0 0.2348 430.775 482.4558)">
	</image>
	<g>
		<line class="st0" x1="445.7" y1="542.4" x2="496.3" y2="497.9"/>
	</g>
</g>
<g>
	
		<image style="overflow:visible;opacity:0.6;enable-background:new    ;" width="183" height="363" xlink:href="4F10C25E.png"  transform="matrix(0.2348 0 0 0.2348 418.36 471.6479)">
	</image>
	<g>
		<line class="st0" x1="433.9" y1="486.3" x2="445.7" y2="542.4"/>
	</g>
</g>
<g>
	
		<image style="overflow:visible;opacity:0.6;enable-background:new    ;" width="367" height="233" xlink:href="4F10C25F.png"  transform="matrix(0.2328 0 0 0.2328 463.3631 534.5358)">
	</image>
	<g>
		<path class="st1" d="M477.6,570.7c23.3,4.8,41.9-2.5,56-20"/>
	</g>
</g>
<g>
	
		<image style="overflow:visible;opacity:0.6;enable-background:new    ;" width="271" height="258" xlink:href="4F10C240.png"  transform="matrix(0.2353 0 0 0.2353 429.4302 526.3758)">
	</image>
	<g>
		<path class="st1" d="M445.7,542.4c6.9,12,17.8,21.2,31.9,28.3"/>
	</g>
</g>
<g>
	
		<image style="overflow:visible;opacity:0.6;enable-background:new    ;" width="208" height="433" xlink:href="4F10C26C.png"  transform="matrix(0.2383 0 0 0.2383 462.213 482.6958)">
	</image>
	<g>
		<line class="st0" x1="496.3" y1="497.9" x2="477.6" y2="570.7"/>
	</g>
</g>
<g>
	
		<image style="overflow:visible;opacity:0.6;enable-background:new    ;" width="346" height="275" xlink:href="4F10C26D.png"  transform="matrix(0.2365 0 0 0.2365 418.6039 435.4158)">
	</image>
	<g>
		<path class="st0" d="M433.9,484.9c19.9-5.2,36.9-16.6,51-34.1"/>
	</g>
</g>
<g>
	
		<image style="overflow:visible;opacity:0.6;enable-background:new    ;" width="263" height="308" xlink:href="4F10C230.png"  transform="matrix(0.2363 0 0 0.2363 387.4 427.2179)">
	</image>
	<g>
		<line class="st0" x1="402.9" y1="442.5" x2="433.9" y2="484.9"/>
	</g>
</g>
<g>
	
		<image style="overflow:visible;opacity:0.6;enable-background:new    ;" width="392" height="179" xlink:href="4F10C231.png"  transform="matrix(0.2369 0 0 0.2369 418.6 470.8498)">
	</image>
	<g>
		<line class="st0" x1="496.3" y1="497.9" x2="433.9" y2="486.3"/>
	</g>
</g>
<g>
	
		<image style="overflow:visible;opacity:0.6;enable-background:new    ;" width="346" height="246" xlink:href="4F10C214.png"  transform="matrix(0.2372 0 0 0.2372 367.24 470.9171)">
	</image>
	<g>
		<line class="st0" x1="382.7" y1="514" x2="433.9" y2="486.3"/>
	</g>
</g>
<g>
	
		<image style="overflow:visible;opacity:0.6;enable-background:new    ;" width="392" height="254" xlink:href="4F10C215.png"  transform="matrix(0.2343 0 0 0.2343 368.1112 498.5358)">
	</image>
	<g>
		<path class="st0" d="M445.7,542.4c-23.1-2.1-44.3-10.8-63-28.4"/>
	</g>
</g>
<g>
	
		<image style="overflow:visible;opacity:0.6;enable-background:new    ;" width="250" height="246" xlink:href="4F10C216.png"  transform="matrix(0.2322 0 0 0.2322 340.0156 498.5358)">
	</image>
	<g>
		<line class="st0" x1="355.5" y1="540.3" x2="382.7" y2="514"/>
	</g>
</g>
<g>
	
		<image style="overflow:visible;opacity:0.6;enable-background:new    ;" width="308" height="279" xlink:href="4F10C217.png"  transform="matrix(0.234 0 0 0.234 339.7273 524.4558)">
	</image>
	<g>
		<path class="st1" d="M396.8,573.3c-17.5-4.9-31.2-15.9-41.3-33"/>
	</g>
</g>
<g>
	
		<image style="overflow:visible;opacity:0.6;enable-background:new    ;" width="342" height="267" xlink:href="4F10C218.png"  transform="matrix(0.2358 0 0 0.2358 381.4 526.6979)">
	</image>
	<g>
		<path class="st1" d="M445.7,542.4c-7.6,16-25.1,25.5-48.9,30.9"/>
	</g>
</g>
<g>
	
		<image style="overflow:visible;opacity:0.6;enable-background:new    ;" width="192" height="375" xlink:href="4F10C219.png"  transform="matrix(0.2362 0 0 0.2362 367 499.3589)">
	</image>
	<g>
		<line class="st0" x1="382.7" y1="514" x2="396.8" y2="573.3"/>
	</g>
</g>
<g>
	
		<image style="overflow:visible;opacity:0.6;enable-background:new    ;" width="283" height="242" xlink:href="4F10C280.png"  transform="matrix(0.237 0 0 0.237 304.421 499.0158)">
	</image>
	<g>
		<path class="st1" d="M320,515.6c12.9,4.9,24.6,13.4,35.4,24.7"/>
	</g>
</g>
<g>
	
		<image style="overflow:visible;opacity:0.6;enable-background:new    ;" width="271" height="288" xlink:href="4F10C283.png"  transform="matrix(0.235 0 0 0.235 272.3975 463.9758)">
	</image>
	<g>
		<path class="st1" d="M288.4,480.3c12.6,11.7,23.1,23.4,31.6,35.3"/>
	</g>
</g>
<g>
	
		<image style="overflow:visible;opacity:0.6;enable-background:new    ;" width="321" height="308" xlink:href="4F10C2A7.png"  transform="matrix(0.2355 0 0 0.2355 272.92 423.8666)">
	</image>
	<g>
		<line class="st0" x1="333.1" y1="439.2" x2="288.4" y2="481.1"/>
	</g>
</g>
<g>
	
		<image style="overflow:visible;opacity:0.6;enable-background:new    ;" width="425" height="158" xlink:href="4F10C2A8.png"  transform="matrix(0.236 0 0 0.236 317.8 423.7281)">
	</image>
	<g>
		<path class="st0" d="M402.9,442.5c-23.2,4.5-46.5,4.4-69.8-3.2"/>
	</g>
</g>
<g>
	
		<image style="overflow:visible;opacity:0.6;enable-background:new    ;" width="392" height="150" xlink:href="4F10C2A9.png"  transform="matrix(0.2352 0 0 0.2352 305.3008 495.8958)">
	</image>
	<g>
		<path class="st0" d="M320,515.6c21.2-4.6,42-5.2,62.7-1.6"/>
	</g>
</g>
<g>
	
		<image style="overflow:visible;opacity:0.6;enable-background:new    ;" width="217" height="429" xlink:href="4F10C2AA.png"  transform="matrix(0.2378 0 0 0.2378 367.0028 427.2558)">
	</image>
	<g>
		<line class="st0" x1="402.9" y1="442.5" x2="382.7" y2="514"/>
	</g>
</g>
<g>
	
		<image style="overflow:visible;opacity:0.6;enable-background:new    ;" width="392" height="179" xlink:href="4F10C2AB.png"  transform="matrix(0.236 0 0 0.236 255.5884 412.6158)">
	</image>
	<g>
		<line class="st0" x1="333.1" y1="439.2" x2="270.6" y2="428.1"/>
	</g>
</g>
<g>
	
		<image style="overflow:visible;opacity:0.6;enable-background:new    ;" width="217" height="354" xlink:href="4F10C2AC.png"  transform="matrix(0.2345 0 0 0.2345 253.96 413.3546)">
	</image>
	<g>
		<path class="st1" d="M288.4,481.1c-9.5-16.6-16-34.1-17.9-52.9"/>
	</g>
</g>
<g>
	
		<image style="overflow:visible;opacity:0.6;enable-background:new    ;" width="188" height="350" xlink:href="4F10C2AD.png"  transform="matrix(0.2349 0 0 0.2349 253.72 360.4694)">
	</image>
	<g>
		<path class="st1" d="M281.4,375.8c-9,14.6-12,32.3-10.8,52.3"/>
	</g>
</g>
<g>
	
		<image style="overflow:visible;opacity:0.6;enable-background:new    ;" width="217" height="408" xlink:href="4F10C2A6.png"  transform="matrix(0.2345 0 0 0.2345 268.36 236.3839)">
	</image>
	<g>
		<line class="st1" x1="302.6" y1="251.2" x2="284.9" y2="317.2"/>
	</g>
</g>
<g>
	
		<image style="overflow:visible;opacity:0.6;enable-background:new    ;" width="158" height="375" xlink:href="4F10C2A2.png"  transform="matrix(0.2324 0 0 0.2324 264.76 302.9198)">
	</image>
	<g>
		<line class="st1" x1="281.4" y1="375.8" x2="284.9" y2="317.2"/>
	</g>
</g>
<g>
	
		<image style="overflow:visible;opacity:0.6;enable-background:new    ;" width="463" height="250" xlink:href="4F10C2A3.png"  transform="matrix(0.2342 0 0 0.2342 270.4135 274.1358)">
	</image>
	<g>
		<line class="st0" x1="364.3" y1="289.8" x2="284.9" y2="317.2"/>
	</g>
</g>
<g>
	
		<image style="overflow:visible;opacity:0.6;enable-background:new    ;" width="388" height="292" xlink:href="4F10C2A4.png"  transform="matrix(0.2384 0 0 0.2384 287.1589 235.7358)">
	</image>
	<g>
		<line class="st0" x1="302.6" y1="251.2" x2="364.3" y2="289.8"/>
	</g>
</g>
<g>
	
		<image style="overflow:visible;opacity:0.6;enable-background:new    ;" width="313" height="208" xlink:href="4F10C2A5.png"  transform="matrix(0.2354 0 0 0.2354 269.9223 301.7358)">
	</image>
	<g>
		<path class="st0" d="M328.9,335.2c-16.8-0.7-31.7-6.2-44-18"/>
	</g>
</g>
<g>
	
		<image style="overflow:visible;opacity:0.6;enable-background:new    ;" width="279" height="321" xlink:href="4F10C2A0.png"  transform="matrix(0.237 0 0 0.237 313.6572 274.6158)">
	</image>
	<g>
		<path class="st0" d="M364.3,289.8c-8.1,19.1-20.1,34-35.4,45.4"/>
	</g>
</g>
<g>
	
		<image style="overflow:visible;opacity:0.6;enable-background:new    ;" width="333" height="300" xlink:href="4F10C2A1.png"  transform="matrix(0.2357 0 0 0.2357 265.96 320.1444)">
	</image>
	<g>
		<line class="st0" x1="281.4" y1="375.8" x2="328.9" y2="335.2"/>
	</g>
</g>
<g>
	
		<image style="overflow:visible;opacity:0.6;enable-background:new    ;" width="283" height="208" xlink:href="4F10C2CC.png"  transform="matrix(0.2354 0 0 0.2354 323.3731 170.6958)">
	</image>
	<g>
		<path class="st2" d="M339.4,203.5c9.9-7.7,21.4-13.4,35.3-16.2"/>
		<path class="st1" d="M339.4,203.5c9.9-7.7,21.4-13.4,35.3-16.2"/>
	</g>
</g>
<g>
	
		<image style="overflow:visible;opacity:0.6;enable-background:new    ;" width="258" height="233" xlink:href="4F10C2CD.png"  transform="matrix(0.2359 0 0 0.2359 358.5315 148.3758)">
	</image>
	<g>
		<path class="st1" d="M404,164.8c-12.8,4.6-22.2,12.4-29.2,22.4"/>
	</g>
</g>
<g>
	
		<image style="overflow:visible;opacity:0.6;enable-background:new    ;" width="425" height="138" xlink:href="4F10C2CE.png"  transform="matrix(0.2383 0 0 0.2383 359.5695 171.6558)">
	</image>
	<g>
		<line class="st0" x1="445.7" y1="188.9" x2="374.7" y2="187.3"/>
	</g>
</g>
<g>
	
		<image style="overflow:visible;opacity:0.6;enable-background:new    ;" width="313" height="233" xlink:href="4F10C2CF.png"  transform="matrix(0.2369 0 0 0.2369 388.84 148.8531)">
	</image>
	<g>
		<path class="st1" d="M404.2,165.2c16.4,2.1,30.5,10.1,42.6,22.9"/>
	</g>
</g>
<g>
	
		<image style="overflow:visible;opacity:0.6;enable-background:new    ;" width="267" height="425" xlink:href="4F10C2DC.png"  transform="matrix(0.2364 0 0 0.2364 448.84 219.4598)">
	</image>
	<g>
		<line class="st0" x1="496.3" y1="234.4" x2="464.5" y2="304.9"/>
	</g>
</g>
<g>
	
		<image style="overflow:visible;opacity:0.6;enable-background:new    ;" width="346" height="325" xlink:href="4F10C2FA.png"  transform="matrix(0.2363 0 0 0.2363 430.5188 173.3358)">
	</image>
	<g>
		<line class="st0" x1="445.7" y1="188.9" x2="497.2" y2="234.5"/>
	</g>
</g>
<g>
	
		<image style="overflow:visible;opacity:0.6;enable-background:new    ;" width="267" height="254" xlink:href="4F10C2FB.png"  transform="matrix(0.2346 0 0 0.2346 481.72 219.1407)">
	</image>
	<g>
		<line class="st0" x1="529" y1="263.4" x2="497.2" y2="234.5"/>
	</g>
</g>
<g>
	
		<image style="overflow:visible;opacity:0.6;enable-background:new    ;" width="175" height="388" xlink:href="4F10C2FC.png"  transform="matrix(0.2345 0 0 0.2345 513.4 248.32)">
	</image>
	<g>
		<path class="st0" d="M537.7,324.4c2.9-20.3,0-40.7-8.7-61"/>
	</g>
</g>
<g>
	
		<image style="overflow:visible;opacity:0.6;enable-background:new    ;" width="233" height="333" xlink:href="4F10C2D3.png"  transform="matrix(0.2359 0 0 0.2359 570.76 240.6218)">
	</image>
	<g>
		<path class="st1" d="M587,256.4c10.4,13.8,17.3,30,22.2,47.5"/>
	</g>
</g>
<g>
	
		<image style="overflow:visible;opacity:0.6;enable-background:new    ;" width="313" height="238" xlink:href="4F10C2D4.png"  transform="matrix(0.2339 0 0 0.2339 429.88 149.1058)">
	</image>
	<g>
		<path class="st1" d="M487.2,165.1l-41.6,23.7L487.2,165.1z"/>
	</g>
</g>
<g>
	
		<image style="overflow:visible;opacity:0.6;enable-background:new    ;" width="375" height="175" xlink:href="4F10C2D5.png"  transform="matrix(0.2368 0 0 0.2368 513.64 240.8158)">
	</image>
	<g>
		<path class="st0" d="M529,263.4c19.9,5.9,39.3,4.1,58.1-7"/>
	</g>
</g>
<g>
	
		<image style="overflow:visible;opacity:0.6;enable-background:new    ;" width="308" height="283" xlink:href="4F10C2D6.png"  transform="matrix(0.2366 0 0 0.2366 513.8024 211.9758)">
	</image>
	<g>
		<line class="st0" x1="571.4" y1="227.5" x2="529" y2="263.4"/>
	</g>
</g>
<g>
	
		<image style="overflow:visible;opacity:0.6;enable-background:new    ;" width="442" height="167" xlink:href="4F10C2D7.png"  transform="matrix(0.2328 0 0 0.2328 482.468 211.9758)">
	</image>
	<g>
		<line class="st0" x1="496.3" y1="235.3" x2="571.4" y2="227.7"/>
	</g>
</g>
<g>
	
		<image style="overflow:visible;opacity:0.6;enable-background:new    ;" width="154" height="346" xlink:href="4F10C2D8.png"  transform="matrix(0.2338 0 0 0.2338 592.6 289.4942)">
	</image>
	<g>
		<line class="st1" x1="609.3" y1="303.9" x2="612" y2="356"/>
	</g>
</g>
<g>
	
		<image style="overflow:visible;opacity:0.6;enable-background:new    ;" width="433" height="221" xlink:href="4F10C4C8.png"  transform="matrix(0.2335 0 0 0.2335 523.6907 288.2958)">
	</image>
	<g>
		<line class="st0" x1="537.7" y1="324.4" x2="610.6" y2="303.9"/>
	</g>
</g>
<g>
	
		<image style="overflow:visible;opacity:0.6;enable-background:new    ;" width="492" height="229" xlink:href="4F10C4C9.png"  transform="matrix(0.2348 0 0 0.2348 510.9691 340.3758)">
	</image>
	<g>
		<line class="st0" x1="525.5" y1="378.5" x2="612" y2="356"/>
	</g>
</g>
<g>
	
		<image style="overflow:visible;opacity:0.6;enable-background:new    ;" width="483" height="188" xlink:href="4F10C4E6.png"  transform="matrix(0.2349 0 0 0.2349 481.9932 479.3358)">
	</image>
	<g>
		<path class="st0" d="M496.3,497.9c28.9-5.9,57.1-3,84.7,10.1"/>
	</g>
</g>
<g>
	
		<image style="overflow:visible;opacity:0.6;enable-background:new    ;" width="146" height="1654" xlink:href="4F10C4E7.png"  transform="matrix(0.2285 0 0 0.2285 428.92 175.772)">
	</image>
	<g>
		<line class="st3" x1="445.7" y1="182.1" x2="445.7" y2="547.6"/>
		<line class="st1" x1="445.7" y1="182.1" x2="445.7" y2="547.6"/>
	</g>
</g>
<g>
	
		<image style="overflow:visible;opacity:0.6;enable-background:new    ;" width="292" height="338" xlink:href="4F10C4E8.png"  transform="matrix(0.2357 0 0 0.2357 286.502 187.2558)">
	</image>
	<g>
		<path class="st1" d="M302.6,251.2c9.8-16.7,21.8-32.8,37-47.8"/>
	</g>
</g>
<g>
	
		<image style="overflow:visible;opacity:0.6;enable-background:new    ;" width="367" height="250" xlink:href="4F10C4E1.png"  transform="matrix(0.2371 0 0 0.2371 471.5685 148.6158)">
	</image>
	<g>
		<line class="st1" x1="487.2" y1="165.1" x2="543" y2="191.4"/>
	</g>
</g>
<g>
	
		<image style="overflow:visible;opacity:0.6;enable-background:new    ;" width="433" height="233" xlink:href="4F10C4E2.png"  transform="matrix(0.2378 0 0 0.2378 324.28 187.7541)">
	</image>
	<g>
		<line class="st0" x1="339.5" y1="203.4" x2="411.9" y2="227.5"/>
	</g>
</g>
<g>
	
		<image style="overflow:visible;opacity:0.6;enable-background:new    ;" width="288" height="300" xlink:href="4F10C4E3.png"  transform="matrix(0.2367 0 0 0.2367 359.32 171.9158)">
	</image>
	<g>
		<line class="st0" x1="374.7" y1="187.3" x2="411.9" y2="227.5"/>
	</g>
</g>
<g>
	
		<image style="overflow:visible;opacity:0.6;enable-background:new    ;" width="333" height="392" xlink:href="4F10C4E4.png"  transform="matrix(0.2364 0 0 0.2364 348.76 212.3221)">
	</image>
	<g>
		<line class="st0" x1="364.3" y1="289.8" x2="411.9" y2="227.5"/>
	</g>
</g>
<g>
	
		<image style="overflow:visible;opacity:0.6;enable-background:new    ;" width="329" height="313" xlink:href="4F10C4E5.png"  transform="matrix(0.2364 0 0 0.2364 480.76 175.8266)">
	</image>
	<g>
		<line class="st0" x1="496.3" y1="234.4" x2="543" y2="191.4"/>
	</g>
</g>
<g>
	
		<image style="overflow:visible;opacity:0.6;enable-background:new    ;" width="171" height="421" xlink:href="4F10C4E0.png"  transform="matrix(0.2358 0 0 0.2358 471.64 150.2221)">
	</image>
	<g>
		<line class="st0" x1="487.2" y1="165.1" x2="496.3" y2="234.4"/>
	</g>
</g>
<g>
	
		<image style="overflow:visible;opacity:0.6;enable-background:new    ;" width="175" height="354" xlink:href="4F10C4FA.png"  transform="matrix(0.2318 0 0 0.2318 480.76 219.9123)">
	</image>
	<g>
		<path class="st0" d="M496.3,234.4c10.9,18,12.5,35.7,4.1,53.2"/>
	</g>
</g>
<g>
	
		<image style="overflow:visible;opacity:0.6;enable-background:new    ;" width="321" height="221" xlink:href="4F10C4FB.png"  transform="matrix(0.237 0 0 0.237 350.92 212.0663)">
	</image>
	<g>
		<path class="st0" d="M366.3,249c13.4-14.3,28.5-21.8,45.6-21.5"/>
	</g>
</g>
<g>
	
		<image style="overflow:visible;opacity:0.6;enable-background:new    ;" width="175" height="321" xlink:href="4F10C4FC.png"  transform="matrix(0.2359 0 0 0.2359 347.56 274.7961)">
	</image>
	<g>
		<path class="st0" d="M373.4,335.2c-9-13.4-12-28.6-9-45.4"/>
	</g>
</g>
<g>
	
		<image style="overflow:visible;opacity:0.6;enable-background:new    ;" width="292" height="258" xlink:href="4F10C4FD.png"  transform="matrix(0.2342 0 0 0.2342 513.64 248.238)">
	</image>
	<g>
		<path class="st0" d="M529,263.4c20.3,5.8,32.8,16,37.4,30.5"/>
	</g>
</g>
<g>
	
		<image style="overflow:visible;opacity:0.6;enable-background:new    ;" width="221" height="313" xlink:href="4F10C4FE.png"  transform="matrix(0.2346 0 0 0.2346 530.2 409.3856)">
	</image>
	<g>
		<path class="st0" d="M566.3,423.8c0,21.7-7.1,36.2-20.9,44"/>
	</g>
</g>
<g>
	
		<image style="overflow:visible;opacity:0.6;enable-background:new    ;" width="225" height="321" xlink:href="4F10C4FF.png"  transform="matrix(0.2357 0 0 0.2357 316.84 424.3406)">
	</image>
	<g>
		<path class="st0" d="M354.4,484.9c-14.2-6.7-22-21.3-21.9-45.7"/>
	</g>
</g>
<g>
	
		<image style="overflow:visible;opacity:0.6;enable-background:new    ;" width="254" height="288" xlink:href="4F10C4F3.png"  transform="matrix(0.2367 0 0 0.2367 527.5034 175.0158)">
	</image>
	<g>
		<path class="st1" d="M543.4,191.4c11.7,9.4,20.7,21.9,28,36.2"/>
	</g>
</g>
<g>
	
		<image style="overflow:visible;opacity:0.6;enable-background:new    ;" width="208" height="254" xlink:href="4F10C4F5.png"  transform="matrix(0.2331 0 0 0.2331 554.92 212.615)">
	</image>
	<g>
		<line class="st1" x1="587" y1="256.4" x2="571.4" y2="228"/>
	</g>
</g>
<g>
	
		<image style="overflow:visible;opacity:0.6;enable-background:new    ;" width="208" height="213" xlink:href="4F10C4F6.png"  transform="matrix(0.231 0 0 0.231 421.5775 338.4558)">
	</image>
	<g>
		<circle class="st4" cx="445.7" cy="363.1" r="9.5"/>
	</g>
</g>
<g>
	
		<image style="overflow:visible;opacity:0.6;enable-background:new    ;" width="192" height="192" xlink:href="4F10C4F8.png"  transform="matrix(0.23 0 0 0.23 506.92 241.3758)">
	</image>
	<g>
		<circle class="st4" cx="529" cy="263.4" r="7"/>
	</g>
</g>
<g>
	
		<image style="overflow:visible;opacity:0.6;enable-background:new    ;" width="175" height="175" xlink:href="4F10C4F9.png"  transform="matrix(0.2345 0 0 0.2345 517.24 303.8958)">
	</image>
	<g>
		<circle class="st4" cx="537.7" cy="324.4" r="5.4"/>
	</g>
</g>
<g>
	
		<image style="overflow:visible;opacity:0.6;enable-background:new    ;" width="192" height="192" xlink:href="4F10C4F4.png"  transform="matrix(0.2313 0 0 0.2313 388.84 205.2558)">
	</image>
	<g>
		<circle class="st4" cx="411" cy="227.5" r="7"/>
	</g>
</g>
<g>
	
		<image style="overflow:visible;opacity:0.6;enable-background:new    ;" width="192" height="188" xlink:href="4F10C4F7.png"  transform="matrix(0.2313 0 0 0.2313 564.76 234.6383)">
	</image>
	<g>
		<circle class="st4" cx="587" cy="256.4" r="7"/>
	</g>
</g>
<g>
	
		<image style="overflow:visible;opacity:0.6;enable-background:new    ;" width="200" height="200" xlink:href="4F10C552.png"  transform="matrix(0.2364 0 0 0.2364 547.72 203.8158)">
	</image>
	<g>
		<circle class="st4" cx="571.4" cy="227.5" r="8.6"/>
	</g>
</g>
<g>
	
		<image style="overflow:visible;opacity:0.6;enable-background:new    ;" width="188" height="188" xlink:href="4F10C553.png"  transform="matrix(0.2349 0 0 0.2349 262.84 295.1358)">
	</image>
	<g>
		<circle class="st4" cx="284.9" cy="317.2" r="7"/>
	</g>
</g>
<g>
	
		<image style="overflow:visible;opacity:0.6;enable-background:new    ;" width="175" height="175" xlink:href="4F10C554.png"  transform="matrix(0.2345 0 0 0.2345 523 170.8158)">
	</image>
	<g>
		<circle class="st4" cx="543.4" cy="191.4" r="5.4"/>
	</g>
</g>
<g>
	
		<image style="overflow:visible;opacity:0.6;enable-background:new    ;" width="213" height="213" xlink:href="4F10C555.png"  transform="matrix(0.2355 0 0 0.2355 420.52 163.7358)">
	</image>
	<g>
		<circle class="st4" cx="445.7" cy="188.9" r="10"/>
	</g>
</g>
<g>
	
		<image style="overflow:visible;opacity:0.6;enable-background:new    ;" width="188" height="188" xlink:href="4F10C556.png"  transform="matrix(0.2349 0 0 0.2349 465.16 142.9758)">
	</image>
	<g>
		<circle class="st4" cx="487.2" cy="165.1" r="7"/>
	</g>
</g>
<g>
	
		<image style="overflow:visible;opacity:0.6;enable-background:new    ;" width="192" height="188" xlink:href="4F10C557.png"  transform="matrix(0.23 0 0 0.23 381.88 143.5558)">
	</image>
	<g>
		<circle class="st4" cx="404" cy="165.2" r="7"/>
	</g>
</g>
<g>
	
		<image style="overflow:visible;opacity:0.6;enable-background:new    ;" width="221" height="217" xlink:href="6D6C35A4.png"  transform="matrix(0.2324 0 0 0.2324 313.72 178.2406)">
	</image>
	<g>
		<circle class="st4" cx="339.4" cy="203.5" r="10.5"/>
	</g>
</g>
<g>
	
		<image style="overflow:visible;opacity:0.6;enable-background:new    ;" width="171" height="171" xlink:href="6D6C35A3.png"  transform="matrix(0.2372 0 0 0.2372 282.28 230.9358)">
	</image>
	<g>
		<circle class="st4" cx="302.6" cy="251.2" r="5.2"/>
	</g>
</g>
<g>
	
		<image style="overflow:visible;opacity:0.6;enable-background:new    ;" width="192" height="192" xlink:href="6D6C35A0.png"  transform="matrix(0.2313 0 0 0.2313 582.76 424.3758)">
	</image>
	<g>
		<circle class="st4" cx="605" cy="446.6" r="7"/>
	</g>
</g>
<g>
	
		<image style="overflow:visible;opacity:0.6;enable-background:new    ;" width="183" height="179" xlink:href="6D6C35A1.png"  transform="matrix(0.2308 0 0 0.2308 559.96 487.2375)">
	</image>
	<g>
		<circle class="st4" cx="581" cy="508" r="6"/>
	</g>
</g>
<g>
	
		<image style="overflow:visible;opacity:0.6;enable-background:new    ;" width="200" height="200" xlink:href="6D6C35A2.png"  transform="matrix(0.234 0 0 0.234 510.28 527.3358)">
	</image>
	<g>
		<circle class="st4" cx="533.6" cy="550.6" r="8.3"/>
	</g>
</g>
<g>
	
		<image style="overflow:visible;opacity:0.6;enable-background:new    ;" width="171" height="167" xlink:href="6D6C35F3.png"  transform="matrix(0.2288 0 0 0.2288 457.96 551.5533)">
	</image>
	<g>
		<circle class="st4" cx="477.6" cy="570.7" r="4.4"/>
	</g>
</g>
<g>
	
		<image style="overflow:visible;opacity:0.6;enable-background:new    ;" width="204" height="204" xlink:href="6D6C35F4.png"  transform="matrix(0.2376 0 0 0.2376 331.24 516.0558)">
	</image>
	<g>
		<circle class="st4" cx="355.5" cy="540.3" r="9.1"/>
	</g>
</g>
<g>
	
		<image style="overflow:visible;opacity:0.6;enable-background:new    ;" width="192" height="188" xlink:href="6D6C35F5.png"  transform="matrix(0.2313 0 0 0.2313 373.96 551.9183)">
	</image>
	<g>
		<circle class="st4" cx="396.1" cy="573.7" r="7"/>
	</g>
</g>
<g>
	
		<image style="overflow:visible;opacity:0.6;enable-background:new    ;" width="179" height="179" xlink:href="6D6C35F6.png"  transform="matrix(0.236 0 0 0.236 492.76 402.7758)">
	</image>
	<g>
		<circle class="st4" cx="513.9" cy="423.8" r="6"/>
	</g>
</g>
<g>
	
		<image style="overflow:visible;opacity:0.6;enable-background:new    ;" width="188" height="188" xlink:href="6D6C35F7.png"  transform="matrix(0.2349 0 0 0.2349 266.32 458.9358)">
	</image>
	<g>
		<circle class="st4" cx="288.4" cy="481.1" r="7"/>
	</g>
</g>
<g>
	
		<image style="overflow:visible;opacity:0.6;enable-background:new    ;" width="175" height="175" xlink:href="6D6C35D3.png"  transform="matrix(0.2345 0 0 0.2345 250.12 407.5758)">
	</image>
	<g>
		<circle class="st4" cx="270.6" cy="428.1" r="5.4"/>
	</g>
</g>
<g>
	
		<image style="overflow:visible;opacity:0.6;enable-background:new    ;" width="192" height="188" xlink:href="6D6C35D4.png"  transform="matrix(0.2313 0 0 0.2313 589.72 334.2383)">
	</image>
	<g>
		<circle class="st4" cx="612" cy="356" r="7"/>
	</g>
</g>
<g>
	
		<image style="overflow:visible;opacity:0.6;enable-background:new    ;" width="188" height="188" xlink:href="6D6C35D5.png"  transform="matrix(0.2362 0 0 0.2362 544.12 401.8158)">
	</image>
	<g>
		<circle class="st4" cx="566.3" cy="424.1" r="7"/>
	</g>
</g>
<g>
	
		<image style="overflow:visible;opacity:0.6;enable-background:new    ;" width="192" height="188" xlink:href="6D6C35D6.png"  transform="matrix(0.2313 0 0 0.2313 462.76 429.0383)">
	</image>
	<g>
		<circle class="st4" cx="485" cy="450.8" r="7"/>
	</g>
</g>
<g>
	
		<image style="overflow:visible;opacity:0.6;enable-background:new    ;" width="204" height="204" xlink:href="6D6C35D7.png"  transform="matrix(0.2376 0 0 0.2376 472.12 473.5758)">
	</image>
	<g>
		<circle class="st4" cx="496.3" cy="497.9" r="9.1"/>
	</g>
</g>
<g>
	
		<image style="overflow:visible;opacity:0.6;enable-background:new    ;" width="192" height="188" xlink:href="6D6C35D8.png"  transform="matrix(0.23 0 0 0.23 411.88 464.5558)">
	</image>
	<g>
		<circle class="st4" cx="433.9" cy="486.3" r="7"/>
	</g>
</g>
<g>
	
		<image style="overflow:visible;opacity:0.6;enable-background:new    ;" width="188" height="188" xlink:href="6D6C35D9.png"  transform="matrix(0.2349 0 0 0.2349 310.48 417.4158)">
	</image>
	<g>
		<circle class="st4" cx="332.5" cy="439.5" r="7"/>
	</g>
</g>
<g>
	
		<image style="overflow:visible;opacity:0.6;enable-background:new    ;" width="188" height="188" xlink:href="6D6C35DA.png"  transform="matrix(0.2362 0 0 0.2362 360.52 491.8158)">
	</image>
	<g>
		<circle class="st4" cx="382.7" cy="514" r="7"/>
	</g>
</g>
<g>
	
		<image style="overflow:visible;opacity:0.6;enable-background:new    ;" width="213" height="213" xlink:href="6D6C35DB.png"  transform="matrix(0.2332 0 0 0.2332 302.8 310.3758)">
	</image>
	<g>
		<circle class="st4" cx="327.7" cy="335.2" r="9.8"/>
	</g>
</g>
<g>
	
		<image style="overflow:visible;opacity:0.6;enable-background:new    ;" width="204" height="204" xlink:href="6D6C35DD.png"  transform="matrix(0.2353 0 0 0.2353 440.44 280.8558)">
	</image>
	<g>
		<circle class="st5" cx="464.5" cy="304.9" r="8.9"/>
	</g>
</g>
<g>
	
		<image style="overflow:visible;opacity:0.6;enable-background:new    ;" width="171" height="171" xlink:href="6D6C35F0.png"  transform="matrix(0.2358 0 0 0.2358 588.28 283.7358)">
	</image>
	<g>
		<circle class="st5" cx="608.4" cy="303.9" r="5.1"/>
	</g>
</g>
<g>
	
		<image style="overflow:visible;opacity:0.6;enable-background:new    ;" width="204" height="204" xlink:href="6D6C35F1.png"  transform="matrix(0.2365 0 0 0.2365 421.48 518.2158)">
	</image>
	<g>
		<circle class="st4" cx="445.7" cy="542.4" r="9.1"/>
	</g>
</g>
<g>
	
		<image style="overflow:visible;opacity:0.6;enable-background:new    ;" width="188" height="188" xlink:href="6D6C35F2.png"  transform="matrix(0.2362 0 0 0.2362 259.24 353.5758)">
	</image>
	<g>
		<circle class="st5" cx="281.4" cy="375.8" r="7"/>
	</g>
</g>
<g>
	
		<image style="overflow:visible;opacity:0.6;enable-background:new    ;" width="213" height="208" xlink:href="6D6C35EB.png"  transform="matrix(0.2332 0 0 0.2332 499.72 354.1589)">
	</image>
	<g>
		<circle class="st5" cx="524.6" cy="378.5" r="9.7"/>
	</g>
</g>
<g>
	
		<image style="overflow:visible;opacity:0.6;enable-background:new    ;" width="175" height="175" xlink:href="6D6C35EC.png"  transform="matrix(0.2345 0 0 0.2345 299.56 495.0558)">
	</image>
	<g>
		<circle class="st5" cx="320" cy="515.6" r="5.4"/>
	</g>
</g>
<g>
	
		<image style="overflow:visible;opacity:0.6;enable-background:new    ;" width="208" height="213" xlink:href="6D6C35ED.png"  transform="matrix(0.2344 0 0 0.2344 595.5859 382.1358)">
	</image>
	<g>
		<circle class="st5" cx="620" cy="407.2" r="9.8"/>
	</g>
</g>
<g>
	
		<image style="overflow:visible;opacity:0.6;enable-background:new    ;" width="204" height="208" xlink:href="6D6C35EE.png"  transform="matrix(0.2319 0 0 0.2319 379.2238 418.3758)">
	</image>
	<g>
		<circle class="st5" cx="402.9" cy="442.5" r="9"/>
	</g>
</g>
<g>
	<g class="st6">
		<path class="st7" d="M446.6,188.9"/>
	</g>
	<g>
		<path class="st8" d="M446.6,188.9"/>
	</g>
</g>
<g>
	<g class="st6">
		<line class="st7" x1="411" y1="227.5" x2="411" y2="227.5"/>
	</g>
	<g>
		<line class="st8" x1="411" y1="227.5" x2="411" y2="227.5"/>
	</g>
</g>
<g>
	
		<image style="overflow:visible;opacity:0.6;enable-background:new    ;" width="204" height="204" xlink:href="6D6C35EF.png"  transform="matrix(0.2365 0 0 0.2365 472.24 210.2958)">
	</image>
	<g>
		<circle class="st5" cx="496.3" cy="234.4" r="9.1"/>
	</g>
</g>
<g>
	
		<image style="overflow:visible;opacity:0.6;enable-background:new    ;" width="200" height="200" xlink:href="6D6C35C0.png"  transform="matrix(0.2352 0 0 0.2352 351.16 163.7358)">
	</image>
	<g>
		<circle class="st5" cx="374.7" cy="187.3" r="8.4"/>
	</g>
</g>
<g>
	
		<image style="overflow:visible;opacity:0.6;enable-background:new    ;" width="204" height="204" xlink:href="6D6C35C1.png"  transform="matrix(0.2365 0 0 0.2365 476.32 263.5758)">
	</image>
	<g>
		<circle class="st5" cx="500.4" cy="287.7" r="9.1"/>
	</g>
</g>
<g>
	
		<image style="overflow:visible;opacity:0.6;enable-background:new    ;" width="188" height="188" xlink:href="6D6C35DF.png"  transform="matrix(0.2349 0 0 0.2349 523.36 445.7358)">
	</image>
	<g>
		<circle class="st4" cx="545.5" cy="467.8" r="7"/>
	</g>
</g>
<g>
	
		<image style="overflow:visible;opacity:0.6;enable-background:new    ;" width="188" height="188" xlink:href="6D6C35DE.png"  transform="matrix(0.2362 0 0 0.2362 351.16 313.0158)">
	</image>
	<g>
		<circle class="st4" cx="373.4" cy="335.2" r="7"/>
	</g>
</g>
<g>
	
		<image style="overflow:visible;opacity:0.6;enable-background:new    ;" width="188" height="188" xlink:href="6D6C35D2.png"  transform="matrix(0.2349 0 0 0.2349 332.32 462.7758)">
	</image>
	<g>
		<circle class="st4" cx="354.4" cy="484.9" r="7"/>
	</g>
</g>
<g>
	
		<image style="overflow:visible;opacity:0.6;enable-background:new    ;" width="188" height="188" xlink:href="6D6C35E0.png"  transform="matrix(0.2362 0 0 0.2362 544.12 271.7358)">
	</image>
	<g>
		<circle class="st4" cx="566.3" cy="293.9" r="7"/>
	</g>
</g>
<g>
	
		<image style="overflow:visible;opacity:0.6;enable-background:new    ;" width="188" height="188" xlink:href="6D6C35E5.png"  transform="matrix(0.2349 0 0 0.2349 344.32 226.8558)">
	</image>
	<g>
		<circle class="st4" cx="366.3" cy="249" r="7"/>
	</g>
</g>
<g>
	
		<image style="overflow:visible;opacity:0.6;enable-background:new    ;" width="208" height="208" xlink:href="6D6C35E6.png"  transform="matrix(0.2365 0 0 0.2365 339.4 264.7758)">
	</image>
	<g>
		<circle class="st5" cx="363.9" cy="289.3" r="9.5"/>
	</g>
</g>
<g>
	<path class="st4" d="M369,53.3c1.2,0.8,3.2,1.6,5.2,1.6c2.8,0,4.2-1.4,4.2-3.2c0-1.9-1.1-2.9-4-4c-3.9-1.4-5.7-3.5-5.7-6.1
		c0-3.5,2.8-6.3,7.4-6.3c2.2,0,4.1,0.6,5.3,1.3l-1,2.8c-0.8-0.5-2.4-1.2-4.4-1.2c-2.3,0-3.6,1.3-3.6,2.9c0,1.8,1.3,2.6,4.1,3.6
		c3.7,1.4,5.6,3.3,5.6,6.5c0,3.8-2.9,6.4-8.1,6.4c-2.4,0-4.5-0.6-6.1-1.5L369,53.3z"/>
	<path class="st4" d="M387.6,41.6c0-2.2,0-4.1-0.2-5.8h3.4l0.2,3.5h0.1c1.2-2,3.2-4,6.8-4c2.9,0,5.2,1.8,6.1,4.3h0.1
		c0.7-1.2,1.5-2.1,2.4-2.8c1.3-1,2.7-1.5,4.8-1.5c2.8,0,7.1,1.9,7.1,9.3v12.7h-3.8V45.1c0-4.1-1.5-6.6-4.7-6.6c-2.2,0-4,1.6-4.6,3.6
		c-0.2,0.5-0.3,1.2-0.3,2v13.3h-3.8V44.5c0-3.4-1.5-5.9-4.5-5.9c-2.4,0-4.2,2-4.8,3.9c-0.2,0.6-0.3,1.2-0.3,1.9v13h-3.8L387.6,41.6
		L387.6,41.6z"/>
	<path class="st4" d="M437,57.3l-0.3-2.7h-0.1c-1.2,1.7-3.5,3.2-6.6,3.2c-4.4,0-6.6-3.1-6.6-6.2c0-5.2,4.6-8.1,12.9-8v-0.4
		c0-1.8-0.5-5-4.9-5c-2,0-4.1,0.6-5.6,1.6l-0.9-2.6c1.8-1.2,4.4-1.9,7.1-1.9c6.6,0,8.2,4.5,8.2,8.8v8.1c0,1.9,0.1,3.7,0.4,5.2
		L437,57.3L437,57.3z M436.4,46.3c-4.3-0.1-9.1,0.7-9.1,4.8c0,2.5,1.7,3.7,3.7,3.7c2.8,0,4.6-1.8,5.2-3.6c0.1-0.4,0.2-0.8,0.2-1.2
		L436.4,46.3L436.4,46.3z"/>
	<path class="st4" d="M447,42.5c0-2.5,0-4.7-0.2-6.7h3.4l0.1,4.2h0.2c1-2.9,3.3-4.7,6-4.7c0.4,0,0.8,0,1.1,0.1v3.7
		c-0.4-0.1-0.8-0.1-1.3-0.1c-2.8,0-4.7,2.1-5.2,5c-0.1,0.5-0.2,1.2-0.2,1.8v11.5H447V42.5L447,42.5z"/>
	<path class="st4" d="M467.7,29.6v6.2h5.6v3h-5.6v11.6c0,2.7,0.8,4.2,2.9,4.2c1,0,1.8-0.1,2.3-0.3l0.2,2.9c-0.8,0.3-2,0.5-3.5,0.5
		c-1.8,0-3.3-0.6-4.2-1.6c-1.1-1.2-1.5-3.1-1.5-5.6V38.8h-3.3v-3h3.3v-5.2L467.7,29.6z"/>
	<path class="st9" d="M478.2,41.6c0-2.2,0-4.1-0.2-5.8h3.5l0.2,3.6h0.1c1.1-2,3.6-4.1,7.1-4.1c3,0,7.6,1.8,7.6,9.2v12.9h-3.9V45
		c0-3.5-1.3-6.4-5-6.4c-2.6,0-4.6,1.8-5.2,4c-0.2,0.5-0.3,1.2-0.3,1.8v12.9h-3.9V41.6L478.2,41.6z"/>
	<path class="st9" d="M522.8,46.3c0,8-5.5,11.4-10.7,11.4c-5.8,0-10.3-4.3-10.3-11.1c0-7.2,4.7-11.4,10.7-11.4
		C518.6,35.3,522.8,39.8,522.8,46.3z M505.7,46.6c0,4.7,2.7,8.3,6.5,8.3c3.7,0,6.5-3.5,6.5-8.4c0-3.6-1.8-8.3-6.4-8.3
		C507.7,38.2,505.7,42.5,505.7,46.6z"/>
	<path class="st9" d="M546.8,25.7v26c0,1.9,0,4.1,0.2,5.6h-3.5l-0.2-3.7h-0.1c-1.2,2.4-3.8,4.2-7.3,4.2c-5.2,0-9.2-4.4-9.2-10.9
		c0-7.2,4.4-11.6,9.6-11.6c3.3,0,5.5,1.6,6.5,3.3h0.1V25.7H546.8L546.8,25.7z M542.9,44.5c0-0.5,0-1.2-0.2-1.6
		c-0.6-2.5-2.7-4.5-5.6-4.5c-4.1,0-6.4,3.6-6.4,8.3c0,4.4,2.1,8,6.4,8c2.6,0,5-1.7,5.7-4.7c0.1-0.5,0.2-1.1,0.2-1.7L542.9,44.5
		L542.9,44.5z"/>
	<path class="st9" d="M555.9,47.2c0.1,5.3,3.5,7.5,7.4,7.5c2.8,0,4.5-0.5,6-1.1l0.7,2.8c-1.4,0.6-3.7,1.3-7.2,1.3
		c-6.6,0-10.6-4.4-10.6-10.9c0-6.5,3.8-11.6,10.1-11.6c7,0,8.9,6.2,8.9,10.1c0,0.8-0.1,1.4-0.1,1.8L555.9,47.2L555.9,47.2z
		 M567.4,44.4c0-2.5-1-6.4-5.4-6.4c-4,0-5.7,3.6-6,6.4H567.4z"/>
	<path class="st4" d="M576.4,25.7h3.9v31.6h-3.9V25.7z"/>
	<path class="st4" d="M599.3,57.3l-0.3-2.7h-0.1c-1.2,1.7-3.5,3.2-6.6,3.2c-4.4,0-6.6-3.1-6.6-6.2c0-5.2,4.6-8.1,12.9-8v-0.4
		c0-1.8-0.5-5-4.9-5c-2,0-4.1,0.6-5.6,1.6l-0.9-2.6c1.8-1.2,4.4-1.9,7.1-1.9c6.6,0,8.2,4.5,8.2,8.8v8.1c0,1.9,0.1,3.7,0.4,5.2
		L599.3,57.3L599.3,57.3z M598.7,46.3c-4.3-0.1-9.1,0.7-9.1,4.8c0,2.5,1.7,3.7,3.7,3.7c2.8,0,4.6-1.8,5.2-3.6
		c0.1-0.4,0.2-0.8,0.2-1.2L598.7,46.3L598.7,46.3z"/>
	<path class="st4" d="M609.1,57.3c0.1-1.5,0.2-3.6,0.2-5.6v-26h3.9v13.5h0.1c1.4-2.4,3.9-4,7.3-4c5.3,0,9.1,4.4,9.1,11
		c0,7.7-4.8,11.5-9.6,11.5c-3.1,0-5.6-1.2-7.2-4h-0.1l-0.2,3.6H609.1z M613.1,48.7c0,0.5,0.1,1,0.2,1.4c0.8,2.7,3,4.6,5.9,4.6
		c4.1,0,6.5-3.3,6.5-8.3c0-4.3-2.2-8-6.4-8c-2.7,0-5.2,1.8-6,4.8c-0.1,0.4-0.2,1-0.2,1.6V48.7L613.1,48.7z"/>
</g>
<path class="st10" d="M288.2,480.1c-102.3-7.5-169.9-43.4-200-110"/>
<circle class="st4" cx="92.7" cy="372.9" r="9.8"/>
<path class="st10" d="M612.2,356.1c100.9-13.8,169.9-0.1,207,41"/>
<circle class="st4" cx="819.6" cy="398.9" r="9.8"/>
<path class="st10" d="M571.2,227.1c51.1-15.4,83-42.2,89-84"/>
<circle class="st4" cx="660.6" cy="142.9" r="9.8"/>
<g>
	<polygon class="st11" points="330.1,34.4 325.3,37.8 320,34.5 325,24.3 	"/>
	<polygon class="st12" points="325,24.3 307.9,24.5 309.7,28 320,34.5 	"/>
	<polygon class="st11" points="308,24.5 309.8,28 309.2,27.7 309.6,41.8 299.7,41.7 	"/>
	<polygon class="st12" points="299.7,41.6 308.4,58.6 309.9,55.6 309.6,41.5 	"/>
	<polygon class="st11" points="314.2,47.2 319.1,43.9 324.3,47.2 319.2,57.4 	"/>
	<polygon class="st12" points="319.2,57.4 336.3,57.4 334.5,53.9 324.3,47.3 	"/>
	<polygon class="st11" points="336.2,57.4 334.4,53.9 335,54.3 334.8,40.1 344.7,40.4 	"/>
	<polygon class="st12" points="344.7,40.4 336.2,23.4 334.7,26.3 334.8,40.4 	"/>
</g>
<g>
	
		<image style="overflow:visible;" width="98" height="37" xlink:href="6D6C35E7.png"  transform="matrix(1 0 0 1 261.4961 65.4961)">
	</image>
	<g>
		<g>
			<g>
				<path class="st4" d="M273.1,77h2.4v11.7h-2.4V77z M274.2,87.2h9.6v1.6h-9.6V87.2z"/>
				<path class="st4" d="M302.9,77h2l6.2,11.7h-2.5l-4.6-9.5l-4.6,9.5h-2.5L302.9,77z M299.6,84.6h8.8v1.6h-8.8V84.6z"/>
				<path class="st4" d="M325.5,77h2.3v11.7h-2.3V77z M326.8,87.2h4.5c1.2,0,2.1-0.2,2.6-0.5c0.5-0.3,0.8-0.8,0.8-1.3v0
					c0-0.4-0.1-0.7-0.3-1c-0.2-0.3-0.5-0.5-0.9-0.7c-0.4-0.2-1-0.2-1.6-0.2h-5.1V82h5.1c0.9,0,1.5-0.1,2-0.4
					c0.4-0.3,0.7-0.7,0.7-1.3c0-0.6-0.2-1-0.7-1.3c-0.5-0.3-1.2-0.4-2.2-0.4h-4.8V77h5.2c1.1,0,2,0.1,2.7,0.4
					c0.7,0.3,1.3,0.6,1.6,1.1c0.4,0.5,0.5,1,0.5,1.7c0,0.4-0.1,0.8-0.3,1.1s-0.6,0.7-1,0.9s-1,0.4-1.7,0.5c0.7,0.1,1.3,0.2,1.8,0.5
					c0.5,0.3,0.9,0.6,1.1,1s0.4,0.8,0.4,1.3v0c0,0.6-0.2,1.2-0.6,1.7s-1,0.9-1.7,1.1s-1.6,0.4-2.6,0.4h-5.4V87.2z"/>
			</g>
		</g>
	</g>
</g>
<g>
	<polygon class="st13" points="290,36.3 286.7,41 289.9,46.1 299.7,41.3 	"/>
	<polygon class="st14" points="299.7,41.3 299.5,57.6 296.2,55.9 289.9,46 	"/>
	<polygon class="st13" points="299.5,57.6 296.2,55.8 296.5,56.4 282.9,56.1 283.1,65.5 	"/>
	<polygon class="st14" points="283.1,65.5 266.8,57.2 269.7,55.8 283.2,56.1 	"/>
	<polygon class="st13" points="277,51.4 280.3,46.1 277,40.4 267.1,45.9 	"/>
	<polygon class="st14" points="267.1,45.9 267.1,27.4 270.5,29.3 277,40.4 	"/>
	<polygon class="st13" points="267.1,27.5 270.5,29.4 270.2,28.7 284,28.9 283.8,18.2 	"/>
	<polygon class="st14" points="283.7,18.2 300.4,27.5 297.5,29.1 283.7,28.9 	"/>
</g>
</svg>
